<mxfile host="65bd71144e" pages="1">
    <diagram id="UnQeQf4PPMaO_wAqGCnH" name="Page-1">
        <mxGraphModel dx="1064" dy="509" grid="1" gridSize="10" guides="1" tooltips="1" connect="1" arrows="1" fold="1" page="1" pageScale="1" pageWidth="827" pageHeight="1169" math="0" shadow="0">
            <root>
                <mxCell id="0"/>
                <mxCell id="1" parent="0"/>
                <mxCell id="10" style="edgeStyle=none;html=1;entryX=0;entryY=0.5;entryDx=0;entryDy=0;" parent="1" source="2" edge="1">
                    <mxGeometry relative="1" as="geometry">
                        <mxPoint x="250" y="709.925" as="targetPoint"/>
                    </mxGeometry>
                </mxCell>
                <mxCell id="2" value="" style="shape=actor;whiteSpace=wrap;html=1;" parent="1" vertex="1">
                    <mxGeometry x="140" y="681" width="40" height="60" as="geometry"/>
                </mxCell>
                <mxCell id="18" style="edgeStyle=none;html=1;exitX=1;exitY=0.5;exitDx=0;exitDy=0;" edge="1" parent="1" source="13" target="17">
                    <mxGeometry relative="1" as="geometry"/>
                </mxCell>
                <mxCell id="13" value="" style="shape=image;verticalLabelPosition=bottom;labelBackgroundColor=default;verticalAlign=top;aspect=fixed;imageAspect=0;image=data:image/png,iVBORw0KGgoAAAANSUhEUgAAASYAAACsCAMAAADhRvHiAAABFFBMVEX///8mJzD/S0u9QEN9NTsgISsAAAUAABZQUFYAAAAiIy0AAAwWFyMPER4AABS9vb+urrDW1tf29vbi4uNhYWaNjZG3t7mKi46AgIQ2Nz5CQkkbHCcAABD/PDwAAAq9P0KoqKoTFCGYmJv/Pz//NTXp6epJSlDa2ttxEx7/0tLPz9C5Ky//29v/Rkb/7e3m5udqa2//h4f/lZW4JSn/XFx1IirXx8h4KTDhs7T/dXW6nZ+gOz/1SUr/6emJNzxbXGEvMDnWlpjLc3TmwMDGYmTHr7H/oqL/traEQ0iZaWz/ubmLUFT/xcXdqKnHZmidb3L/Z2engILDqqzCUlTcPkDUREbUwsPpR0iykZOEJSzPIST/mZmy8A8tAAALaklEQVR4nO2caWPbNhKGSdkUJZ4SdYs0Td0OfSmJHSdpsnJ30yRN023a7Wa72///PxYDUiTAQ5ZTHZY8z4dWEngMXs4AgwEdQUAQBEEQBEEQBEEQBEEQBEEQBEEQBEEQBEEQBEGW5Ofvt23BLvDy+enft23Dw+fi9Pjg9B/btuLB8+744OD41Nq2GQ+cl6cHhGMMu4VAyAEYdgt5F6j0mMPOunp6ccchP58ehBz/867LvT58sSLDHhZnw/Phs4VOcvH8IOKOsPvh5vr69UrNezBcnRcGw/cLDpiH3J1h9/Xw+vDwZE/j8sOgUCgMBh/y2uOQWxx2Lz4SkQ5vflyPldtnWAAG558yW9mQo2H3MvOwFz+BSIeH1/s5NBGenlOdCkeFzxmt/zrmZcoMu9qPJ4cBN2s3d1ucHRVCjq6eJBv5kMsOu9EvJzdzlfZ0AAfezGUqnA+/nHFNyZDLCDvr10gkMoCPNmn4ZqGDeCTUq7dMUzLkgrBjEi3rD0akw8OfNm785rCGhQIrVJxvpkOO6vQuOvX1NSvS4fXXrXRgQ8wH8UioMN98mxFybNj9xotEZNpiJ9bPk6NCISEUzTezQo6603PwN5Jy8yId3vyx5Y6smUKKwdH7nJALw+7rx6RIZACvbbsj6+X9IEOowu95KhGdvkuLtN8DOHAxTMsE/Dtfp7+lVbr+Ydv9WDevzrN1yhXq+CAt08m2e7F2PicH8Yg3OUIdf5dU6ebXbfdi/eR5U75QqbA7mWy7E+vnz4xBPBYqKzFIhd3HbfdhA7zNGcRD/pO1aOHD7ua3bfdhE3xZEHY5QvFht69lS578QTwSamHY3fyy7R5shjtlKqTyTTbs9rdsyfPsjqijJCY9Nuy2bf+GuGMQzxQqDrt9LlvyXC3jTok0Kgq7fS5b8nxalDrlCRWG3f7uO6VZLuqoUMeJsNvvsiXP0+WijhKlUUHY7XfZkudseXdihIKw2/eyJc/VfWSa55sQdieX2zZ9k3xYdhCf83sYdvtetuSx7hV1FJj0jv+792VLnvsM4oxQp9u2e8NcDO4bdsD/Ht0rmdaz8+Hw6GgwOCcskgbaB4Ojo6PhUeK1g8fCxdmTT+//fPrqy5vBcAii8dDfClevnj57/+Hz2dtHUWW6k4uLt2eEJwHk09uLC1QGQRAEQRAEQRAEQRAEQRAEmWNO697abzKqtLt6ueiKs4a/9putCq9SqTTDz23Xto3Zeu/nl4q6rYgERdJkvbEj1fyyrsvj4GOtDNY75hrvNho7ksiiud4ab7c6iqIolYKPpg6G9/rru5lZDESytV6vF/iUKHPua3mEZt7524ORKelNPpi8yjcUTXoD27Cnfc/rtzuqRh2qxBxigXevOe6/BUYmGJskIza6pep6ubq6W11SldR6dMnLlgrepbfjYyyV2FNf3T1XBSuT0KzPvLipQR62scI/EhpLqaFv1LHJb8yz2AmZeFYsk+8QRdykd3bICCXFUYYyte2s+WHigjtFaQHKBOO1k06T6iQU9SgSH71MFnEbpZv+3Surajl2soUyVU3T5P8k3qr5/mRBimpNSPvC2XpU9Wv8BUYTv5o8ZYFMfZBpZX+oP3JyBLAA+DDuEGgyBR86okebJxL5CN42mboGmXob8Zm1Rsc1ZNlwxXbmhNyc9lRoV+U6n4o1yR0UOKXW1lW4QCly50lbUw3DcKUWpxQrk0nOFiv0k0LsvI0s7mj3ESSbkZrtTTEdSVGClFMB9MDFqo6iGKSX7bJNs6zI8Ub1shYcLiq2Ok65fd/R7Xmyb+s9VqiKoSgOkalVDo+QjDF9UtZ0/ouolT3mDE4mmRhXmX+amwCUv0kZniIkTYuWcB2FW8eEw31VJmNXU6jrofVzmZpFmz1aKvOzw6Woc1cT1Wnc2CRtclWYGnGzrRDTRorGnOG0OONjmcjZoUyJexT/okRAiYzVdnvBASJ4e/BsgTIjk+mR/yo9ncRHGHT9YuAljuuGXuOw154UqeYaCThdNXrwxYjbqUw1zxAlcr4q09NtooIo0V9IcNOzi3GOlyNTmdhJz9YDk1cgkwfSO17+AbXJpFY1II26nACjSCbN00RFHfdN368Eplcgj5CKU/PSEkbmlK4VmWtbskKXRS0f3LfW16G9HNVtQCa9qotGtzkSLL9NNTXMVk90Zib5pVa57UEgSXfIZBEra5Do6GaNmrwCmQS61jWmC0sn6YQAZBI1UeuwozRdfmrdaH657EK0lKO/sJjZ/K0sWAFI4/lXkEm0xag6cSlSVW1mjdDWqXLzr9kyUVa9WPHDlW9jwd+L5Mgkavwc2ZWSP5VsJps3y6TbBjMnChaEUXF+YyqT6MSj+qUajF9MnXAGY0Q0nm1QJqFSDkZhtdvPq1vmyKR0uKNMg/WNAPDVYuheo37HMaZcc7/H9C3wJnYsa4E32uwpNVhb2fNvm5RJMJ1gdlI02al7WSlZjkwGLyuEkJrIAEE6LZ6bJm0+uCcGIwyVqcgeENyFy75uFeaYjcrE5iVkSlFaqawwL+i4g2pk/NZScybplSImf8y+MMgkzZLNosydMSWWOvNnsVmZSBenapz1aU4nUanMlimRR3gkgJyUL0LcJF2Mge0oyKRxeRZdSvGRDTNYdJdNy0Qsak4dOcqf5S53h2yZtAZ3BVgtK6nr0lk+t5BfMxIy6dwDylhxblkmwCerMV0K02ePNXcZmezEaBseSIToeamfKTWP3mrXZBJgu67uBsmuy7j/MjJZxGal1G/w9KFbCT2FkV9pTEtK0dB3VSawzQsWXnF6vJRMUGsgk2USOzHJX3ozsk7RNTva8tpRmQh9lw7lsblLyDRhVqwJYpn8cbEXbwlKmr7TMgk+6BTfdGmZ0t4EyHOZpuGOoGJruuy4pf5oF4dwBkiP4xxmGZlg0lJKjVYWofVB2cU2nO60UfHpGiWZEOyYTILDJnZLDeHqHRUZwaP+5rbZ3H3XZeqS6c6dLwqWSgjU/MJ0AB2IOnyquesywVI8WhQsJdNYSS4seCCDEvVEwcbdCZn8sqqqmdW923t7U+sOwyqptUh44YcvE9iReTXYSogzgqVk8mWuGJACZgU5UaqBvu2ATNRpsgbeNrf0oDJxa/cMmQTI3lO7D/3+3FZYGidKL0LdXqdM8sreSIFHnH6FIMib4mIqdTpuWZslE1zLTuz5jco9Qw/KuqBCz+Naq+5a00t9Za9kWXQrRE94J33/ginNCzD6ckWSLJksOEvnw64bV7trsCV4y51gr2+xAlshGSvxb6WvJ9e5wqhN1youU/6YcbV9IVsmoQI6sbsP1hiEKIaRBgGuMZb7miKtTaYq2LLCVzFLdK+wZ7RN2LS3JpV6UMpkXwOjtVpRshuVSovZgErKJExpNdtpBM45aTnc+2RNuIjWMQMZ/bpLxjtpXTIJdFvGqXtNz7uvJJl0e8H6VDdckh0YYcFJ5h22S3/VdL0cPKBsmYQZ9U3NcMTOrWEEDyB2QvpEFN3pzGYdBzYcVYjTNclk0uFE6ul6fo35Xkxdfv9bTG9qC6NeWAMOp/wcmYRgDxLUCP/vsHJ3gieiSBK0KmV/fVk4vH0ZdsZd0evbfsdhd/4VrThL1bStsUEdKixNV1VJ0jNkEnxRjq8lyTY/2cR7E8SrRBKbZUmy5x2tyJJk8DJBc0KmniS5c+vYs02DnM3KJHjhSx/GykYov22TcOtpWk+X3U4j870gc+Y6huMGLjzplkrj7Jewzalj6IDhzlIzcnXqyjrcRr314HuHXGbubya5ZpfrkgXNfIrRGJOD5hugqbP5+1kNxTUMtcyJ9xcZ+ZV+v+81/QUuejmpLeXAE7PiVcycHBju45kb+jcJrVrt0fzztQiCIAiCIAiCIAiCIAiCIAiCIAiCIAiCIAiC7CH/B0rFIzUyf9T4AAAAAElFTkSuQmCC;" vertex="1" parent="1">
                    <mxGeometry x="250" y="665" width="157.26" height="92" as="geometry"/>
                </mxCell>
                <mxCell id="21" style="edgeStyle=none;html=1;" edge="1" parent="1" source="17">
                    <mxGeometry relative="1" as="geometry">
                        <mxPoint x="640" y="680" as="targetPoint"/>
                    </mxGeometry>
                </mxCell>
                <mxCell id="22" style="edgeStyle=none;html=1;" edge="1" parent="1" source="17" target="20">
                    <mxGeometry relative="1" as="geometry"/>
                </mxCell>
                <mxCell id="17" value="" style="shape=image;verticalLabelPosition=bottom;labelBackgroundColor=default;verticalAlign=top;aspect=fixed;imageAspect=0;image=data:image/png,iVBORw0KGgoAAAANSUhEUgAAAUQAAACcCAMAAAAwLiICAAAAaVBMVEUAloj///8Aj4AAjX0AkoMAjH2p0csAkoQAj3/a6ui42NTW6OYAl4lbraOZyMKu1M+gzcdwt67Q5uPh7+4yoJTx+Pf4/Pvs9fSCv7d6u7Ocy8XA3tofm46OxL1BpZlotKpOqp8Ag3LH4d6wjw89AAAI+0lEQVR4nO2ba5OiOhCGIQQBFUUB8a7j//+RB9LNJUknznGHndqqfj5s1UIkzUun0+lkgoBhGIZhGIZhGIZhGIZhGIZhGIZhGIZhGIZhGIZhGIZhGIZhGIZhGIZhGIZhGIZhGIZhGOZPkFKINE6FkPK3TflHken1tN039aFu9tvTNWYd/zciuZXhlOa8Fr9t1GfIpOUXXEDKRWhzqfwyRjTprKaKrgvarkSIOKiej91u98jvVxELU0qpDJzHsPhISNixTRLPzxw/OnyuYhuUo+DuayEuqgvK0WTx0gdTvd9U6fQFZK6uVx/b50bKvUOO1tqnxxldv4k/tiTf7g9h6fP/K/RxI1RMKWOyfGLNfCLK6mB0XEz/c3N7/4+LCG6WeUQUW3QywipSxDDcB4Pgs4ko71a3ujVbp4oOEcPPRVy+E1H2fTzsOOMQMTxUfdu5RJSV1WkR6f93qqju1mXTNGWWZSsk2388q78VUW56ozL7S4GIzXK7KIrF9pKNb3Dtfz6XJ5pjOQylNC7cHG8FksfC5GNb3ooYj9ba0w+IuIillEk7Q6XxE8d+2OBUlzxmETGefC/kLBPz0pOeo8HoH8zI3okod8r3m+7fi9UKRNxO7BHBCt0ALs4jotiEFiIwPZHOKOYQ8c3EEqkUZnNTHVt3bRFbJ3nBC4ArziPi1dbwltgihlsy9XsjYjusUpF2K3HydiLbe/o6HUV05pl3VA9HjHGXEjEQEABgHppFRPGy5Dq0bmAN5zE0a/hETITMb9vXqsz2y1sVm/EgSavj9pWV5X65yWXveihiF9UQ3Vx1+yLAbCunjykRZTG5OouI9sysogch4pIaYh4Rk522eGiO+mSa5trtFc4SoNIULTFYq0v3fpI9GT2TIgZPdRVCxBwiQhzX6ByRGM7tlE383iOiNINtc504Y2x27BRxqr08d1fKVteoVsIYqRctIljZzCYikZ0eOxMoEY/EBO0RMdlZTxhNj6wogiPTLyLkN50hyXkq/XCfFBGGVa16mEFEfOSUGowmRKQyaI+IMAcc2iR8GLd1/4SkL3eU+9dKpSsrvOUVEfKbUDWFgW3EGFpEaFrO5Ylya5rchxlCxJCYMn0iBmWRB1GXeke5nqz1GXMh1eSc3m9ZgW4OIja3zcDk4bF6zFapIaBkoncNIi6NiSWf+MAMIgq9cNSZj1GGEpEoUIGIQmoMTx/qojKGYiUWDfC1xqlGij5UeGfnamIGqqHXckgRMe4Xc6U4xhK5ZYcGtC4SR9GXVqg158IARbw8c40n0ROui8B4mB/IUo8v2Yb6TYmfGby50R5CiSgxE87nSnGsTFu3CaNJj5XbOqo4DTHu0fidcgeIIqRSXhHBf9FpMf3Lp0aBU2iBUq7VPN5/shlEtGpgenlJ6CHTSh0cIpIlVVAARh+8/4EqDXlElDAbDUaAB2gLaFPEREYnNOo429o5N1/f54hmrOn4voipmoRhmsBZ9kyMZ4+IsGweRcOpRWsCdkZpN52l8fqx6Gs+fUb5F0TMfY74bREbXQLYeBNqZj1DB5iGLiLriR4RYdiMwxc/xXRqAREPZZmtsrKZmFT3jeYfzsYCwHBEKpVR11cbnePQLhHxtdt6y+/yS/kNZjL9zuLhFgg9hXeXwuDONAak1tRiT5TAarTo50U0ZHpqKpmOGG4cIrYOReY4MrmN+1+NeuMC74nBTV4PzR09IlofEj/FxGpaxMNp1BlFJKspH6J3uv+K4ygetmpNR8SpVcN6sQmC2Mgem46Drb5NS2EuESXMEFquCnnjZUwGKBH3u+meKS5Gf1LE1Eq21ZuqTi1HpHr2iHitqUePmfj08eN+olPEVCWa5df0jMAXLIRGjTQRD3V22eRGLXMGEYll3/CmliNSKYlHRHvnRm8q1sXYJBuuukQkisc9Y2UEku1NJIZisGnaDCISBYgQA5ftiPaWhkfEFMs0q2PVvU3wPNZWUxk9hphZ4zWXiLIwzRkph68LIp49ZzZmEBGjNSWi5YhUSHSL2K+1ov5H8Z5omqRVX7XBzMAlYkQ6NjLMtSiiZ89nFhHtoiyIaDsieb7GJaKEnaTJmgzyxMJqmt5xioHFkkNEaWa0GsNSCofzXxaR2h5QyZztiPb7B24RsaI1iaIuEQMpoDbxUsJJENH8YCk47NICvm+fwvySiMRGVSei7Yjk7oBTRAiJ0zIuikiFK9iOg8oz5H5WCQOWOC/rlAAEiWHJ/0siUrNe+6a2I9KBxumJSsTMEpGM+VAZg4I1xgFjOGPtYWd1hNnjC9uDiNR5sZ55RBRnQkTbEWt6J9glIuZO3xQRhANPhHwhNxaDK0pa1R7M6yvmv+SJWBzRRBS2IzqOXbpExE2UYgyKKGK/7Jv+BM4o9GUL9cPxsJJqSFS9EAyWmCq+F1HOI6I9dIvYckTvgSYqxcGHbiKJJQeIXvh+19VJ4uZBImPYW8UaEe5YLNM2Ue7qF9tq2H3NiX4w08WZ6PdETMzSbGFtmPqP1lEi9rt2dfGo1uvr83RWyTYWZbtItj/vnvfquSsazddlvxH4WmzOy1I5WaSakEXcfs8LVAERydkLmUvEQD51yTZm5WDpP+RJLvvsiDARkVhtDuXotNFvtIMYvjJRWB+fBXEidtvTNz/NJKJ53NjUsHCfe3Ubbfn3RESi7jHJhozUtY6x5OUIy+ABUFUkd/v0V53LE/0H38Pdu4PvtIskayIFBRFFY17fTHxdVnr9R8KSr3EMBzhQAhJ/Q8TZPLEz5RTS7Ne+04fdCePMlZeJajFxuUN2Oe/Q+PS+eY1KrW7GH+6IY3/wtFk+RFCVXS9HRy/JMRtui8zXUpF3Tcq1p8UfIMk6ifbnCwRq2eC2WQpR5d0f5jyvMmrn2zHiyzRO7o/daZdXxAMSIe/5I7/LVO0e+HtJJrff2DM08bb4E+ToAEC9vf/An/epPxFz3ZLuPx4zjyb+KyQi2C1eqyzL9pfFsbL34phvkXR/qttt2/6jfsAwDMMwDMMwDMMwDMMwDMMwDMMwDMMwDMMwDMMwDMMwDMMwDMMwDMMwDMMwDMMwDMMwDDMD/wFMoWWqXMNzSQAAAABJRU5ErkJggg==;" vertex="1" parent="1">
                    <mxGeometry x="440" y="673" width="157.85" height="76" as="geometry"/>
                </mxCell>
                <mxCell id="19" value="" style="shape=image;verticalLabelPosition=bottom;labelBackgroundColor=default;verticalAlign=top;aspect=fixed;imageAspect=0;image=data:image/png,iVBORw0KGgoAAAANSUhEUgAAAa8AAAB1CAMAAADOZ57OAAAAtFBMVEX///8AAAAQo38AnXYAoXwAnHTf39/Q0NBRUVG2tra5ubnL598oro3Dw8Pm9PDk5OSTk5Pv7+90yLClpaWurq73/fv4+Pit2sxLS0vs7Ozf8eyDx7PNzc2X0L9cuZ9Ks5ZBQUE6Ojqi1cZ7e3uQkJB4w61aWlo7ro+z3dGBgYEaGhrX7efu+PVvb2+oqKghISHA4tgtLS0TExM0NDRxcXFnvKQdHR1lZWVVtZp9xrGMy7l1ybGt2fQBAAATDElEQVR4nO1da0PiOtdVknoX9dHiiBeEEWEGZgYdmUHe//+/XqBNstfOTlq8oGfo+nDOCGlpu5KdtS9JNzaWQbM/7U56M0zG0/PBUodWWDHSUVcrpbWuzTD7n0r0uJ9+9FVVkFG/1GrBFMXso241yj4hhl2fLEPZTfOjr64CwzQJsLVgLOlWVvEzodlTYbayyWz/o6+xgsW5Zwq1N9qS6UdfZYUc0wSYUomqHRzMjKAC1tT4o6+zwgJjYgu16l3vD7PPh/udFh14qvWx11lhgWdFxtaUKcFhp0a+vmn2r7vjyWQyfu6Mhh9zueuOa+XG1qWkAjvOKi5MZAalVO+50iArx8jOXapXl5ukN3R+g5mudlmNspUitaNLRfRfP+ib6WQcYLnCe2BimEj64UbNScyXVperu9x1R98Mr2QUbJM+hwJVhrFaNY+tCOaRJ+fBJh3fdfaH2PUKr3mN0cmHl3oOtdg/gECVztItc3VY+dKrh2HhIPB9E5ShVvqms18fphtpvdm/7FW+9IphZi8lzz/pJWVEJy2WuhxMNfGlK8LeHa2MDn0jfnteA4vXEkhNr51VrEziO6N+no+ORMpGDnrUFKpaQO6nY+dvVwH898NgWktU2JINxzR9qXVE/51bm5hUsv6d0O8ROpTvel3jxDWOBp0G1ibqd7vgtcboABxgzYO8oxrV8EmvqNymafkKugUVXox6D8MV3ByyiUtH4lQGTXOEqiqp3hpe6l+DTBh2YeIqGRs0Qf6A0ixAo3FxtLW1dXTSeMnR/zbGXmoEpq9rDRPXTdnYezc/LFlygDW2j+/bmxbt+7urf4a0I4p40wZtSh5AKpRBURvWol+rgyX0nqF4KSfsbGdTwJef/wRlu3BTu9G2W7Tplf047YFIz4eEE38dWsihpRDwdaslS3sbKimdvzx6ksjK8LRV9iyfF7dwR7fRtsDXtv2Y0KVqnY7mfPVI4v9ZKA3oz+SHVjUx9WLOGw70AxrfwmwtGDspd55Piy12Q9EeKPPlso5ad+yQIHwdmAZqIoQ8BsZaqpbwbT42S4YRD+NszfGz1Ik+Le7Y7XyLNRb5mrrU/3g+eM59vszYE0ZQSsrrpdFnCgtUmcLtgsGV4f4/PY098tuJNZb42rfKME9OBvjSqiOc8Zo5bf7sdpM1CMT6Afdl6NrcfCxQVZ8ZvgGJKQ6JLzd15U9U5ktPhAEyOvB0peoxYvLTlZjAvpSja7PA6H9q+F3yS6S1wJe1hla/B/jyPeTmxLjDLKwI3lkzn8C6Rbciivh/jLCT5e7F5ys11tAF0Uvy5cptVG90g9EPqu1TXU5wRGS8gP+oTDwVbiWiOHy+TACCPOJyfNlym4WmZPUcoExydRmqLchxJtxJ++vd8enxt7/eHL25+bv0I/pUEO4kpjg8vobmoZPeX4avfRMQcbXaWC+VOG2fZ6tr0Rs58u7i/tCNoa3TX0v0ys+LbYmuzb1ge48vUySvyJRTzFd9bE0hccjSZzCKVtvn7p2OyvBbdg/33Krv8q65LZ7nc+OHyFdYcXh85bYKYvFFfKVTyxZzyAYtzD5nDoBxx2N87bJbOPObNP5ik/+gRZTUxhxB/4TzNTBWjWr1Ar76Lm3sO2SY0swiw2XsIbsBWTKx0EA8VPoZIc3RcwRtO+frOh9eMDdF+YKspehA4zQ2HproSExvMNkUUrgY/vgVOeHnBDX64GyGTA/nKw/kYvo3wheW28gBquEYvDE9zf8xidwI0nUVbIfe5mHkjBka83xnWel/Mmu7dbF8sGvxIxclGtKn/wACK6Q4OF/GeEGjMF9Tq+HtDCaFeAeQTTOHRDLSGKSJKL8GNPxL72zbwvBz9fUha/d4f1bEwvbxrdEzv/6eBR7+ifsNawEOn4xybR8XOfHUPNxttOlgCxzB+MrrK1gyMcDXdN8+enVtKZF34OhDSWnGbKTeA2VT7JZxBiDPlZiabNgxPfk1NgBOufb8Ig5dIoqeFh80jvGwdnzE06ZHGz/xTxGMr1Ee2sN5KBSftx7Xooytb/8WZMc8zMUYi1QE4Kg5jd7zH9qUKA4SzJqb06PfmxzHoVNybbrAb8Fd2HNff2V/G+xEjC9t3mZ3HbApjK+OGDoP5lOyj008l8h6qUCgPmaR+/CNXMEtx00X9GhiEJEvkYIv4pm5m4CUABhf8oFht5AqjHkSDyZj+RDGVy4PWd11jC9Ny9jqJmooF+BAiCpWwAEc/Ai3mwPjIO5z4IuZKYM/Que/8AInFrecX+Cr0Q4cFnKm4Mrnp4ZZW7akjK+pl/mfI8yX5qXwlhKdSHLinOwgEAn33hdfuAMYOjfDE762Q27O5qM3wvwwGMEDaw58PYSOCrkZ1Hu8X3xCj5IVR4AvVAwhvrSa+KPIRg3FlQ+p23IlMsC+06sqUt9faWOngwlfUgw8B4+JNMJN52hja8LXt0hqNTAB07vMrhvcSXFYvmZ8abmMLb20CbSWIClGdhYLJiwv6EUVOsEwNTkNUTJ5xiYlHrXkeILWgr4QIV43WL9s4AIbd9JB8vylysxf4XyjK5NXgrZvWmmvAkWmELT+K7cJ3IJrXTbZCb64N889fGcfgHUW+frjG0bRpFN1YnpNmx4lqaFX6MPw0qGUqApB2w+t2xaIcEDPE7sZBcRMb+3HPl+3P7ePtq54IoZaRJy8Hs8WpngbLN13+tM+X5mLfMQCm5I4h8s2nQYstxTjYHz1xdKKl/EV1vZ1u5WHvDcEyAMhMM9AW/+xn3K+HqyuZtqePBYQ5O4hQ/+h1XOcrx92SGBRIZv2FqDU2KuGmWBHOIrxNcjjG2jqXsSXbjltz0NUpgIrsHwdrFJxTBBMlv2U8XVPbxqiF+5hwvCi45oaaDoeGV/HgUNE00aHufstGMuC4mB8pcvED+N8qcGApJxZC1PTIw8wsCbhWK9BW3wyyNdt+K7dY6G/i52bDkni/yJfqEWg+sSPfQGfzguBMwpTgRefz41Ymfh8AV/7xN3yqhBNWlR0wu7YRRUANF2AL9bBweLaYSGS6P0GUZTIF/4GPFmfL0onHbJwRv9eOV9TIb1sZjX9bAkryReJGipcfGksorhuDzyq4kK1Enx5HhB1so1BpF3+nrUnzDyKn3qjATw5r9PBt3SKDniTBpyvfWMQqQ4feoHc0nzNN1Ix0xjojpbUMaRrfpPx5c0fMMDyz+i06T0p8p0besAX71hU1ntGHX6fRgTATvJeI9Rv5HRhhL6fMLFXnq95yW9OTY+2yTMB+GGOJe0hBKREvnwfDvp3/qTv/Y8cyNN3wwH44n2CXoAnmmgfQ1bA3fAUh8fX1Mw44OjWWxjIXYYvVzAP7rHpGILPDHwV60NQe/ZT+riEgFCbfJ1nYcTTGBCp74Q+S4gEj/BuAh47jmUQx57i8PiqG9vHohcjEshNl+Tr/yS+nvMPhSAjeI3FRTS0tZtcdtiNMdBQXUYn+D5ee9KHnHSkfHneErXqnC8IFOLAhMt4ZMcJ9b03ZjUld3OvndgbLcfX/yS+8plSqgooErUICBQ4qUX5EkLGtE988x/FzhfEDp2NxAv10j6UE84XNQk8rQYuGJ9Hfb7qptxJ8wWrqd0RQIWedN6wDF/D8JZUkK5cLn7o5gLKl+Cu+o9aLrWVIJ7Ey2ZSw8b4gg551TihaIAU4VkVYX2KKaDXB16stknLP1/JV+6CSYID4gyF8Xkoe3BzC+HLsyobGGPKSC4bbCf000M8OxDha4mFN0xxCHylNrruE0bLPyP1TaX4CleNYhKqqDAManOcdiPP5LtwFB3DGV9iyYAIa14pX141SJivC37CCNhppfV6I0OJrgm1aWT9ZKDAaTjWZfgaa0GIZgCPKlz8n+GXcAsbOL4Ee+jzFUxCe7B9nvLladAwX3zFchR4UnH9ctcSJqUUXYmomI80uqSQLyMQBb5APhVMYFuBuyuYv3x7WH58vZYvcQ1RCNhd5f0BWnYIJULGf4PUGnobslmD+Rq+YnE5DuCWiOoCfejrjRI7EeR4JV9X/HxRoDct8zV0dUwLd8vDubahd1D1M0FiDnyNPcRlG8E6wTkaoaYF/hdVKZlUgKTJ6XEYd+L8VZ6vUL1cAKA4ZL76pO6spqT9a8QlRCndAuwVeoMvNI9V3GAGn4SRKF9CzpPOIdmjpqr0NvKLBC/iK7SGKATorjJfXV2jUNLGhnW7I7aZxtyC2FJ85TVWUgCRzf1+oaYFSq1b8s1O/AT06z3vOUqKUsCL+IpUa4kAb0Tm66CGkDcOJbWG3ZT8pZ7L8BXxl72ysrBExHom+swoIQ/+gfSwfFTSyu5yi1JexFd7Sb7gYJGvVNc4tPiSQ7LE3O7kMFcoZfgy8Sh572W2r00oSM+2EKBPGXxSL9wOc37+WSzgJ+MlfPHtoopBI5MiX3aRJa7wl8o/7cbzbieHkvGN3OYKewLPwV1KmTDGKoQYgC/PJ6BOton5UCP8xNof3p/uHXmD7iV8QXLv+EwG2kyiOES+TG7q/Bw2pRTdreYEttZbpM1K8WW6QWBbPb5xlLR+mZfUwvPEmA/jG27bPGkQAkzjZJqu/eP0kMq1l/BFfyQca2sDq4ELNzdlNgwaeSv8u8LTfdb86zJ8mT4RqqL3VNRfHpfy/CXcpw35YiEO0J+WAToZYrgdhrv7nRfwBV55OPcAgosoDpEvU+U7H04wfoT3C9VtQbxbWVmGr1zNh99X5Idfv5JZqLHX5l+zUDaLqf6mA+avfBz8JDx/OOBEPKAkX3DZ4doUFFzu8EK++BZe6gAmHOKGuemtBF+23ia876+wNcWvr6d7V9uHZ8fS4gI2/ngM/NHWUFzgVwFbRQmA6YRMbcvzBakHqYzUAHqIUxwl+PI2qnE7orgllbhBVDFfuccQ3SY7uEBHBC9p8XMW93sXjY2TKzYz3pJjIDWzuZM/jxNUoWQCW54vCPXGFo5iNs7+pshXh0u3FF+6obKNaoJhxGK+zBKW6Is5lgoEeJuMvmi9A+siD99+np2ysUxr4ZfnC04VXSkFQWGrOES+hCr6QQunsU4sTF/Il63Hjm/RdlI+kO131RetJyp2jv7Q5kvzBRopnniAQJv9VZEv0ZXt40Y1vciyvCK+7Hqjok3oT8qaREHtl+OLRz4Kg0UgEZbmK1qbgUAP1JxA5MuEithyH3y3jRlpQnyigK+6Pbh4D/pyG8JK3jTUswWP9ExSwYbB+IyX5Qs5KIh5QYczWRU5fmi6P0t1sM1sgsvKe9H8ctNtN1ViC/oSWd8d8cYhXxmqzRBqDaKEsSGxLF/QbyJRbO/ktmPJfN1wwWGAG9V4O/POMcwLsEN89d1uzuE3AxOcFKSLvgdCfZivFHOEv0WiI3lmPo6X5QtWPhUuvIGfzhWHzFcuECV75aYx8b0OJC8m8jV8wVv2tiKM/Qou52P55Qt/ZXJom6OLwO89vTZ+CBr9D2/vASKNeVBa5svUICaCtUuni/Ej552JKBHqe4d0rza1xBuKLk7b8hOM9FGvHoBNYt7+lwRbgq8uvfmDDkWPL+pqZXxBPyisg2UuWHaKwPtTzBIFsWStPklU0orVdSy4drVVJvPffcVbYi/OnnDh8Ze7uEER6jd+2jH2/VvRe4B2f1Bn4q+8P9jRroNH5xb5Mpsnz3a9j6KgzXezuz0h5zhzYsm+HltWBPV9odAN1QgdPmY/Ufp1bDO9II62rw53d/eutktsiSfW2zS2rnZ3D7fL7HU3305ve/FrpbbG+1iYjOUSr1XjLwQjX/VQVc4HX+He869GQX3UP4ZLoxpKvkUoGhTmdOlE2sDtjbFefJltzcu9aJKUsdVq3ntVBuxNfepAeo3zW2O9+LIzmC52alP2Jku+p00Ht9ETd0d8e6wZX/YVX7pW8GpKzLaoiTcgbzQhU0/LvEbqDbBufFkrpmsxk8gmLqEoJ3UOdtI6XxFb68eXfdPDTM0FLVgdX2uTSNn9a9NifF72JbJvgbXji9gxeSHKRnqJE5f8NnpzjhKv035LrB9fZJmKTsYeY0N8EUCAU/dClpVZwgxryJd7reh89PQ6RIYPR7h7sqoFHDX7vqPn1VyyxTryBZEJrZRuXXbO+53pGF+gF6jWXsDEotQqfC6KteRrY0zV31zizVnTGLDQ6iboo5mN2JZ7nflbYD35mvnN/uIHhJi1zGGTk5E6w3fCmvK10eypGFvy2+hzjCxdZXOTb4d15YssfpXoitm5jnO5V3axFrdry9fswdeCVjEyvEjqf9ViY4Ztgv/0+89fhFF3pgipWIzvIDA/wqUnkxW7yhVmSPenk5pKEqVm/9Etp/S1uvTl4YAsa/mAyatChmFzsL8/aM75AV/6ZgT7kXZ6xH6q988lVygB9KWT1nN/NBjsjzrdg4RaTrXqwEaFAG5ANs496TmYMy2G7Ct8CK5Zol9Qjzq2YKjCijGoxX3p5GbFQfkKBbjWwXCVZlVSFT4DhlMt+tI66ZUshauwWgw7rYS9SXRG4bgaW58Xw/Nuz9F1MJlWZK0E/w+r3U6yF2TklQAAAABJRU5ErkJggg==;" vertex="1" parent="1">
                    <mxGeometry x="642.19" y="660" width="139.99" height="38" as="geometry"/>
                </mxCell>
                <mxCell id="20" value="" style="shape=image;verticalLabelPosition=bottom;labelBackgroundColor=default;verticalAlign=top;aspect=fixed;imageAspect=0;image=data:image/png,iVBORw0KGgoAAAANSUhEUgAAAZ0AAAB6CAMAAABTN34eAAAAjVBMVEUsc+j///8pcuhMhuvm7PsIaOcib+c4e+klcOh3oO/t8/0ebef4+/5lk+30+P4Ya+eTs/JEg+tQieuMq/CXtvLU3/kzeOne6fuwx/UAZeYzeurJ2fjq8f2rxPWduvPY4/q6zvalv/SCqPDA0fdxnO5ekOxznu/E1vh+pO9Kg+pbjOsAX+Zol+21yvWLr/Gw/CHCAAAP00lEQVR4nO1daXuiOhTGKJgaSqpVtMXWajfbq/7/n3fZknOyATOjz2Qs7zeVLedNzh4Mhj8M47TE+G8/RycE5KchKPG3n6Ibgh49evTo0aPHxUFDr/Gz/QH6Nhl5jMXjj6Ynuhn4jMm4Z8df9Oz4jJ4dn9Gz4zN6dnxGz47P6NnxGT07PqNnx2f07PiMnh2f0bPjM3p2fEbPjs/o2fEZPTs+o2fHZ/Ts+IxGdgjjNVgLh4RLsPPK77L4h9kh46eVQNRID0mP8sjtv0RPN3Zeb/YSNy/Ow7Z3Dsy3x2yd2E55goNef5WdGbpM2DRIMkZXbDzSM3RjZ8giCTZ0H8aZCzwMpzfHiXHKuzwlvP9ldmI48NC0JDA766tjZ4RHROjGddysUb/QiJPdSDvllson+SN2koA6D7xydubKxGR3v8dOUNhxtltfhJ3BJ2+47VWzM1XmJR27jps1zN8ahEXHi7Az2LnpuWp2NtqA2OL32clFFZ4uwo42h5Qjr5mdU6Sds3Ox0y105Oj8M7KzdLrV18xOrPcyE/Jn7AQcVs8Z2RlsXbrtmtnJjPGwTwc7oFtohEB1EYfyAudkZ3CIHEdeMTt7I5SI3hzsSFHSrxvAxzQKmWIUSCQEe1Z21o9203PF7CSBEBAMnety0dmJTsoP8Wg75ljOTJies7Iz+LTHpFfMzovQ5nSYirPY0Xqok50CqxSLLhxdgp3ByWp6rpidN6HMw823ECV9t7PTKOo1zrYIv+/M7CRWp/562VmLlwXkQeizFG9oZswGytqxiTpGVltYnjOzM9jY3m1wvew8CV2RSw+Gzp5+g53BeoxM18tF2LG61e3sUBqxiLHCvbx4uY+Q3KFl+c3a79XKjhRfmCHxE2uiuo0dLDq2vww7NreaPDaxQwjj4+/D/jS/2328DwOuRLWEyx3G3NCaDH4znpPbfiOU8cfZ4WZ3l9/rMEw5M6INjDZ2ZABO0lwWcyndUE82d2JnAouHTuPLsLNODSE2sUMYHZ4WoKjj5etbCvIk6etC4ku7Mltt5G/6OuBw3iYVMmTp7XYBkotH2d2MOoK0UiYt7EhTU5rxjZxW7Pl32BncwKOEyWXYGbwauq2BHUrfzKzhaDuVtXCWwfcfkXZZZH2/VeZIYN6SpSfLnF4cImeCsIWdeIYVW/5Rxj5Ty9HNPluBJ3DbwrJMdCZ2Elyw3elRj5MdwmaOjO6W1A/GUGygVb3pLTrh2f3bqpwuVC+eSCyGrtJhCzsbcV6dW7sDr81Sg2tfOwuQDS8r1edi5z808niqJwYd7NBo7hz5cloNlXxZpFGB4bOzyPlbqTCi1JH+KnBvmq0u7JzE89RGHJ7PEm92YGcEY+Cr4oszsRM/fKOz9JKHgx0SIK1lIH5n1UFLOFd9mhCvuyRVfuOIiyLZEn05Fk6FZzs9zewk0g7WeUtQbaWXoKEDOzItFLBt8cW52Ak5nsjPqumxs0MDZwm+QhU9c6Q036lyVSXoUw3PA/S4FHOFBI3kGIqxEzuZGCVh9TcnUG3mxGu3O5djR1W1M0XPWOMdwl1FRPUq0Qd8oVS6ooNysGKUsFkupspDy0QwPI4u7Nww/TBQGrWuU0bTvnZgCOfVbGFAx7gJRNEU1rUTuju/5N0L55yk8IXiDnLVbV0ozCHh5AtOq1dOsuPT6lUlDJLNXdkB2XDRbJYMpWojRoNaOzuoN6PSzOdjR50ur4prZmFHm1zJ8TAN0++5KrLXYjJFsMZGOKrR/KIEFylRLiXJnfMHLKpsFnLOGOd0jr+eW3RbIzswVUL5Hag2bky+dnbA5wseSk18RnbU1XCDBounf80OCbBkkhNnedRRRPK3isyLxEOlgqvjhvA45FGbnbfI8CDmciEq9bB9KI4jjKAOy6Vl8TSyI5Mi6PKg2swaXDs7YDpJcM5cQckOCVCwF4+xIOH7mp1Kr9bIAlCEUYQVVuGjUuQOIutgDB8bHg5f30fKPL7Di5riBppvMyhtYmcknUR0+US2vpBI90Na2clgALSyqedkJ2A4PNxA67vJjtL1dVQSaIRjnZc/HyFwH8QAWlIVkOFBhMb5cuPglGuOd4SY15trWthZgceGDC5SbXqiupUd5JHWqaCzsqMaalDkJjtYtAt9BwMe15EryRwUTUvlJZ4igSQiashcc6WUPNJCMbR4XszsehM7cqkpviM8oJLJKNDGDnbq6zTqedkhFHvJ7zLRYbCD61NGwY4wUAqTXF8iWU+k6SeP4u4yLIfsOAd7UkxxpOcMdraTdY0X0y1oYGcJ1RxsbmPo6mNL9YwWdo4oNV8rtjOzE9AhMtUjka022MGmZGVOWZxby0WOgxe5+qXgEiKYlqWw4AHIL9I4HB4q0QZE0vGjgDnEBnbkTCdU8U7u5RTRE9WN7CT3uG4iYtkzswPtJAWOzMEOUmyxxRjjhr1CChzWkhy89JmzB5G02YhaDUpQl+qOI2/lqOVsGl9Y38COzCVqGgz626iWw2/o+phsx1i9U7H35tzsEGWd181eBjscHN61LYUSglIoRouuKY2DPOROdh5Lh0l3cTlOqzwFzJwPDrjZ2cASUTtwUG8oVwMyxM5+tARk249ULSxKk3pudgL6iDzJOk9oZHIgfMulb/nbBeiGHExy9hgIaaQvx/ibScUnGmRQLFpm/NRdG6P5NOJmB+avsSN9M0I0zxmpNnWJIPsa4ZdK56Ge+ixcPu7Z2VFdmKy8sb52sCFZkdQERRFEPheRphPrQ8ptwiCyECYMZfDK8em7NuLN08dXUSH//b4C6Zgb7VFItX0pFqlrHzWKS87PjhqIlLV2fe1gAhPre7BhWEW8gjVdHY9KrztXdVLxiTI/+GjrSoq2nN7ydTdMGf+9vgIIHI3WwhhyDopG7bZDJL/nEMR6AXYIw/r2PTLXjq025UJcPKGuqhBfuWmTKTuhSKEl5rN6LiVDi7DOnt+DhsYPJzuye9pSmtiBalNO77R2CPtGC+4C7KiKpKhZ6OwYYX4TCmOC/KIq3JOZu4IQSONVbRNI3wtJMUfnefFAx1n0y5VraSnocL1UMQLHnoxxBaoLO4QpLFyCHc2tDv+MnX0hYNBVSWkspNiWhShkpqYyPEzGolCs5K49T+VFPn6xco0qGeb/WKD4jeN97O3sEDZWi3YXYSd4wDe5YQY7OAXahlKJQKmxio9kErVMvMnrLctFEEkrNQJviA9tPWYCi7G1AdzFjmsrjHE+9pDa2KE82Gr3uQw7SmIwSekfrZ1S/lAXLz3WByHq0omWQigrDCgWxXkIyt0tJgNLI1EpEzs78UM7MZUcUjQlnF5B0ZzKwvDd3LpwGXaCCAfQiwedHVszXqPYkKEv8qLS0lTPR6TiK6hEE/ZNmeMsmDesH3OblJOdY8P+chU4oYvWTvSAwdLv+6eFzW+5EDtBiPPnc5SZKdlB0eFqPG1G7RNLT2aEy7B1SlgG12VKW956om00JowNn53dDJa57WDHknxyACcUUddHV5/1UuwQjjO0aCWVHjVq5HjitBl1CCMjlqKsx4USqGu9UlWOGEEFh4W5HAiLgtttZtvCkXXNUU+6KrZCaYEYPGIndzUdIUbRv4TesGOpqtiA+jZydfUggow6ZS2naO6koZr43HptQnOGvu5ftQT/YDA0xmpn51dexISUeHvHlIGLsYOyRQpKdih8Xphn2oBiqGcuzc5axOUycbeLkIl6d2ogQvIYZ7xTtdzJkLqdHWCRRPa3EqF9UpC08oodLY8hUGVBUXmt44YdSOZkoTQ7Mu6QadMXDqts3fy3aMUaOuBI33yZjJWdpRwrSU9zG57fUMJTzoD2rg8DF2RHjZSlyMqUPuqjPVj3MmpmB9v6hEsjJJMm0s9YM4gApbSdNRzCpugZN93WDlTkjeK0HCTaJyVtjF9rR0sziQcvjsTdf0cbsY/SZRMPgDyJoVh6sbnbLJ5Ruch2lphRHw7O8ps9U1Z2wBE0GjvgES0dL56xo7ZF1VhXvVXwRazvmQqK/vVkUiERXgPqG98JswO1fWhUuIfeuVpE5FH+LeU605UX3uLQjR0wlEqHmArcOyQUvG/s4P0DAnXXB7JJmZHkwn1MUo/AjoOVkBlKBUhl9yLrLULYJIKrob4dk52NsdZs7EB1zanYlHcGSSPpGztB9G641RU7yrCftf+cpSnYamg7gGTOUkQ7KBUgdeVIurAyoscVDd3JxtrXdO4t7ODKtFOxKapNtON5x05g5rZELyhWCnPc8pBbarTiNlJiqAhZBzR4IchyayyjHckdTusl34rpV3apmKk2CzufoNhIQ14Iq7baTfGPHRLpbnXNjuoxZGPGKp+KMrLD9d59BJfSXUAlFWBsc4ZWYWUX52TGpbUiEW6kjs0XzFnYgZ239GD8CEAmUeT9/GMnl4zWiy72IGjbj7J9Wvi76WyumKoFaojg+kt/lR1RxhscUOOucq/46YuKmPEN3+zYJZODNpI0KTYl8VC303nITsC1AQp2zGLyaLnUq8AxzkwaLw1UkpE4d1cCcUe0LdDLl7v9fvuqpoUNh8HKDqSnCW3cTodVW+W6+sgOZCwryN1VDcVkCeWlSETL3KmpAOjcrYGJ5R1KFrYCj8nOoZtiU1Rb3TzoJTtawxfsG+WtmVrNweKqadFyytpmq4kSvLTvTHzqVH1bRx0Vm6LaqsZhL9kJohm+ItpzHba8SeNOu6gmj3s1PNFKeuqr4kjYsklV9+rrR9efEF5lQ5j1RVK2Q2un0U921PcK4PcV8FmD6k4OevihmRbNxdJiQy2NQ8LGqX5jr2MY7EDWO2pWbKpqK+2eX1lQOBA3FCvv+oiIU2arwIjcqZJW1fMu6l7HgZEU4AczcVHjM3V0cejsLNGm6BbFphi+MsHu6drJg390ReVIwmbWP8dYjW1/GqOYFiOyV/xmy+uXo2hv4yf+fDdfXiVO0dg5cZHrprxFseWqDTrEy1rXLBIfWWd2mk9pYofOJolAyz+DsH1cHxgvNaFSNr7PFAW3/PxwbBNgd7G8o9bRUYjyHn6NbUY+Dz5vnzbKCltnpzFztz9p7MSH4azG0HwfgY7lEI4u8hzfgWgTJ10r14fmU5r/u2oMaCmhRQ1H5rFhOttvs8Vikb3M36aB3pMP4sV3bH6e1HoJQhl9/N5tP7PsdfV89/aVssbtIvraiRHaZasdnQA6nFyi5ZRmdhp3JrkOtf/KGGdRxIuN8Q3XIs13bPm5Poay+j+3WOsmhH/4v6t+AHp2fEbPjs/o2fEZPTs+o2fHZ/Ts+IyeHZ/Rs+MzenZ8Rs+Oz+jZ8Rk9Oz6jZ8dn9Oz4jJ4dn9Gz4zN6dnxGz47P6NnxGT07PoO+TayvXvQEi+Yt/1cP8+1rXuFnk9OjR48ePf4WLC9cv278S8MOhj8M46r1f/y3n6MT/gcVX1zzgtCfEgAAAABJRU5ErkJggg==;" vertex="1" parent="1">
                    <mxGeometry x="640" y="715" width="142.18" height="42" as="geometry"/>
                </mxCell>
            </root>
        </mxGraphModel>
    </diagram>
</mxfile>